<svg version="1.1" xmlns="http://www.w3.org/2000/svg" xmlns:xlink="http://www.w3.org/1999/xlink" width="57.66264" height="57" viewBox="0,0,57.66264,57"><defs><radialGradient cx="238.49708" cy="179.90936" r="27.83132" gradientUnits="userSpaceOnUse" id="color-1"><stop offset="0" stop-color="#ff0000" stop-opacity="0"/><stop offset="1" stop-color="#ff0000"/></radialGradient></defs><g transform="translate(-211.16869,-151.5)"><g data-paper-data="{&quot;isPaintingLayer&quot;:true}" fill-rule="nonzero" stroke-width="2" stroke-linejoin="miter" stroke-miterlimit="10" stroke-dasharray="" stroke-dashoffset="0" style="mix-blend-mode: normal"><path d="M267.83134,180c0,15.18783 -12.46051,27.5 -27.83132,27.5c-15.37081,0 -27.83132,-12.31217 -27.83132,-27.5c0,-15.18783 12.46051,-27.5 27.83132,-27.5c15.37081,0 27.83132,12.31217 27.83132,27.5z" fill="url(#color-1)" stroke="#ff0000" stroke-linecap="butt"/><path d="M243.04715,172.2501c5.91863,1.32751 10.32786,6.43778 10.32786,12.53938c0,7.11067 -5.98819,12.875 -13.375,12.875c-7.38681,0 -13.375,-5.76433 -13.375,-12.875c0,-5.885 4.10173,-10.8478 9.70337,-12.38382" fill="none" stroke="#000000" stroke-linecap="butt"/><path d="M239.86843,185.58553v-23.25" fill="none" stroke="#000000" stroke-linecap="round"/></g></g></svg>