<svg version="1.1" xmlns="http://www.w3.org/2000/svg" xmlns:xlink="http://www.w3.org/1999/xlink" width="132.14459" height="130.59528" viewBox="0,0,132.14459,130.59528"><defs><linearGradient x1="240.00001" y1="115.70236" x2="240.00001" y2="244.29764" gradientUnits="userSpaceOnUse" id="color-1"><stop offset="0" stop-color="#646464"/><stop offset="1" stop-color="#232323"/></linearGradient></defs><g transform="translate(-173.92772,-114.70236)"><g data-paper-data="{&quot;isPaintingLayer&quot;:true}" fill-rule="nonzero" stroke-width="2" stroke-linejoin="miter" stroke-miterlimit="10" stroke-dasharray="" stroke-dashoffset="0" style="mix-blend-mode: normal"><path d="M305.07231,180c0,35.5106 -29.13387,64.29764 -65.0723,64.29764c-35.93843,0 -65.0723,-28.78703 -65.0723,-64.29764c0,-35.5106 29.13387,-64.29764 65.0723,-64.29764c35.93843,0 65.0723,28.78703 65.0723,64.29764z" fill="url(#color-1)" stroke="#ff0000" stroke-linecap="butt"/><path d="M247.12452,161.87999c13.83832,3.10385 24.14753,15.05215 24.14753,29.31827c0,16.62543 -14.00096,30.10299 -31.27203,30.10299c-17.27107,0 -31.27203,-13.47756 -31.27203,-30.10299c0,-13.75969 9.59024,-25.3632 22.68741,-28.95456" fill="none" stroke="#000000" stroke-linecap="butt"/><path d="M239.69237,193.0595v-54.36073" fill="none" stroke="#000000" stroke-linecap="round"/></g></g></svg>